# xmcd CD database file
#
# Track frame offsets:
#	150
#	21792
#	42085
#	60417
#	81835
#	100435
#	120207
#	138815
#	160500
#	176885
#
# Disc length: 2658 seconds
#
# Revision: 0
# Processed by: cddbd v1.5.1PL2 Copyright (c) Steve Scherf et al.
# Submitted via: CDex 1.51
#
DISCID=710a600a
DTITLE=電脳戦隊ヴギィズエンジェル - The Song for Songs 2
DYEAR=1900
DGENRE=Anime
TTITLE0=もっともっとRadical Fight!
TTITLE1=ON TO VICTORY
TTITLE2=天使のアンテナ
TTITLE3=Every day, Every night
TTITLE4=がんばれ！男の子
TTITLE5=君のためなら死ねる
TTITLE6=POPCORN TOWN
TTITLE7=セピア色の風
TTITLE8=涙の５秒前
TTITLE9=DREAMS
EXTD=
EXTT0=
EXTT1=
EXTT2=
EXTT3=
EXTT4=
EXTT5=
EXTT6=
EXTT7=
EXTT8=
EXTT9=
PLAYORDER=
